<mxfile host="app.diagrams.net" modified="2021-02-23T05:51:25.053Z" agent="5.0 (Windows NT 10.0; Win64; x64) AppleWebKit/537.36 (KHTML, like Gecko) Chrome/88.0.4324.182 Safari/537.36" etag="fhe7In2FZCkYfAlKRaSP" version="14.4.2" type="github">
  <diagram name="Page-1" id="9f46799a-70d6-7492-0946-bef42562c5a5">
    <mxGraphModel dx="2946" dy="1103" grid="1" gridSize="10" guides="1" tooltips="1" connect="1" arrows="1" fold="1" page="1" pageScale="1" pageWidth="1100" pageHeight="850" background="#ffffff" math="0" shadow="0">
      <root>
        <mxCell id="0" />
        <mxCell id="1" parent="0" />
        <mxCell id="Mc22LgpbHQMwx9RBva0N-15" value="Vehicle" style="shape=table;startSize=30;container=1;collapsible=1;childLayout=tableLayout;fixedRows=1;rowLines=0;fontStyle=1;align=center;resizeLast=1;" vertex="1" parent="1">
          <mxGeometry x="850" y="80" width="180" height="250" as="geometry" />
        </mxCell>
        <mxCell id="Mc22LgpbHQMwx9RBva0N-16" value="" style="shape=partialRectangle;collapsible=0;dropTarget=0;pointerEvents=0;fillColor=none;top=0;left=0;bottom=1;right=0;points=[[0,0.5],[1,0.5]];portConstraint=eastwest;" vertex="1" parent="Mc22LgpbHQMwx9RBva0N-15">
          <mxGeometry y="30" width="180" height="30" as="geometry" />
        </mxCell>
        <mxCell id="Mc22LgpbHQMwx9RBva0N-17" value="PK" style="shape=partialRectangle;connectable=0;fillColor=none;top=0;left=0;bottom=0;right=0;fontStyle=1;overflow=hidden;" vertex="1" parent="Mc22LgpbHQMwx9RBva0N-16">
          <mxGeometry width="29.999999999999996" height="30" as="geometry" />
        </mxCell>
        <mxCell id="Mc22LgpbHQMwx9RBva0N-18" value="vehicle_id" style="shape=partialRectangle;connectable=0;fillColor=none;top=0;left=0;bottom=0;right=0;align=left;spacingLeft=6;fontStyle=5;overflow=hidden;" vertex="1" parent="Mc22LgpbHQMwx9RBva0N-16">
          <mxGeometry x="29.999999999999996" width="150" height="30" as="geometry" />
        </mxCell>
        <mxCell id="Mc22LgpbHQMwx9RBva0N-19" value="" style="shape=partialRectangle;collapsible=0;dropTarget=0;pointerEvents=0;fillColor=none;top=0;left=0;bottom=0;right=0;points=[[0,0.5],[1,0.5]];portConstraint=eastwest;" vertex="1" parent="Mc22LgpbHQMwx9RBva0N-15">
          <mxGeometry y="60" width="180" height="30" as="geometry" />
        </mxCell>
        <mxCell id="Mc22LgpbHQMwx9RBva0N-20" value="" style="shape=partialRectangle;connectable=0;fillColor=none;top=0;left=0;bottom=0;right=0;editable=1;overflow=hidden;" vertex="1" parent="Mc22LgpbHQMwx9RBva0N-19">
          <mxGeometry width="29.999999999999996" height="30" as="geometry" />
        </mxCell>
        <mxCell id="Mc22LgpbHQMwx9RBva0N-21" value="nickname" style="shape=partialRectangle;connectable=0;fillColor=none;top=0;left=0;bottom=0;right=0;align=left;spacingLeft=6;overflow=hidden;" vertex="1" parent="Mc22LgpbHQMwx9RBva0N-19">
          <mxGeometry x="29.999999999999996" width="150" height="30" as="geometry" />
        </mxCell>
        <mxCell id="Mc22LgpbHQMwx9RBva0N-22" value="" style="shape=partialRectangle;collapsible=0;dropTarget=0;pointerEvents=0;fillColor=none;top=0;left=0;bottom=0;right=0;points=[[0,0.5],[1,0.5]];portConstraint=eastwest;" vertex="1" parent="Mc22LgpbHQMwx9RBva0N-15">
          <mxGeometry y="90" width="180" height="30" as="geometry" />
        </mxCell>
        <mxCell id="Mc22LgpbHQMwx9RBva0N-23" value="" style="shape=partialRectangle;connectable=0;fillColor=none;top=0;left=0;bottom=0;right=0;editable=1;overflow=hidden;" vertex="1" parent="Mc22LgpbHQMwx9RBva0N-22">
          <mxGeometry width="29.999999999999996" height="30" as="geometry" />
        </mxCell>
        <mxCell id="Mc22LgpbHQMwx9RBva0N-24" value="city_mpg" style="shape=partialRectangle;connectable=0;fillColor=none;top=0;left=0;bottom=0;right=0;align=left;spacingLeft=6;overflow=hidden;" vertex="1" parent="Mc22LgpbHQMwx9RBva0N-22">
          <mxGeometry x="29.999999999999996" width="150" height="30" as="geometry" />
        </mxCell>
        <mxCell id="Mc22LgpbHQMwx9RBva0N-25" value="" style="shape=partialRectangle;collapsible=0;dropTarget=0;pointerEvents=0;fillColor=none;top=0;left=0;bottom=0;right=0;points=[[0,0.5],[1,0.5]];portConstraint=eastwest;" vertex="1" parent="Mc22LgpbHQMwx9RBva0N-15">
          <mxGeometry y="120" width="180" height="30" as="geometry" />
        </mxCell>
        <mxCell id="Mc22LgpbHQMwx9RBva0N-26" value="" style="shape=partialRectangle;connectable=0;fillColor=none;top=0;left=0;bottom=0;right=0;editable=1;overflow=hidden;" vertex="1" parent="Mc22LgpbHQMwx9RBva0N-25">
          <mxGeometry width="29.999999999999996" height="30" as="geometry" />
        </mxCell>
        <mxCell id="Mc22LgpbHQMwx9RBva0N-27" value="hwy_mpg" style="shape=partialRectangle;connectable=0;fillColor=none;top=0;left=0;bottom=0;right=0;align=left;spacingLeft=6;overflow=hidden;" vertex="1" parent="Mc22LgpbHQMwx9RBva0N-25">
          <mxGeometry x="29.999999999999996" width="150" height="30" as="geometry" />
        </mxCell>
        <mxCell id="Mc22LgpbHQMwx9RBva0N-49" value="" style="shape=partialRectangle;collapsible=0;dropTarget=0;pointerEvents=0;fillColor=none;top=0;left=0;bottom=0;right=0;points=[[0,0.5],[1,0.5]];portConstraint=eastwest;" vertex="1" parent="Mc22LgpbHQMwx9RBva0N-15">
          <mxGeometry y="150" width="180" height="30" as="geometry" />
        </mxCell>
        <mxCell id="Mc22LgpbHQMwx9RBva0N-50" value="" style="shape=partialRectangle;connectable=0;fillColor=none;top=0;left=0;bottom=0;right=0;editable=1;overflow=hidden;" vertex="1" parent="Mc22LgpbHQMwx9RBva0N-49">
          <mxGeometry width="29.999999999999996" height="30" as="geometry" />
        </mxCell>
        <mxCell id="Mc22LgpbHQMwx9RBva0N-51" value="miles_tracked" style="shape=partialRectangle;connectable=0;fillColor=none;top=0;left=0;bottom=0;right=0;align=left;spacingLeft=6;overflow=hidden;" vertex="1" parent="Mc22LgpbHQMwx9RBva0N-49">
          <mxGeometry x="29.999999999999996" width="150" height="30" as="geometry" />
        </mxCell>
        <mxCell id="Mc22LgpbHQMwx9RBva0N-52" value="" style="shape=partialRectangle;collapsible=0;dropTarget=0;pointerEvents=0;fillColor=none;top=0;left=0;bottom=0;right=0;points=[[0,0.5],[1,0.5]];portConstraint=eastwest;" vertex="1" parent="Mc22LgpbHQMwx9RBva0N-15">
          <mxGeometry y="180" width="180" height="30" as="geometry" />
        </mxCell>
        <mxCell id="Mc22LgpbHQMwx9RBva0N-53" value="FK1" style="shape=partialRectangle;connectable=0;fillColor=none;top=0;left=0;bottom=0;right=0;editable=1;overflow=hidden;fontStyle=1" vertex="1" parent="Mc22LgpbHQMwx9RBva0N-52">
          <mxGeometry width="29.999999999999996" height="30" as="geometry" />
        </mxCell>
        <mxCell id="Mc22LgpbHQMwx9RBva0N-54" value="user_id" style="shape=partialRectangle;connectable=0;fillColor=none;top=0;left=0;bottom=0;right=0;align=left;spacingLeft=6;overflow=hidden;fontStyle=1" vertex="1" parent="Mc22LgpbHQMwx9RBva0N-52">
          <mxGeometry x="29.999999999999996" width="150" height="30" as="geometry" />
        </mxCell>
        <mxCell id="Mc22LgpbHQMwx9RBva0N-89" value="" style="shape=partialRectangle;collapsible=0;dropTarget=0;pointerEvents=0;fillColor=none;top=0;left=0;bottom=0;right=0;points=[[0,0.5],[1,0.5]];portConstraint=eastwest;" vertex="1" parent="Mc22LgpbHQMwx9RBva0N-15">
          <mxGeometry y="210" width="180" height="30" as="geometry" />
        </mxCell>
        <mxCell id="Mc22LgpbHQMwx9RBva0N-90" value="FK2" style="shape=partialRectangle;connectable=0;fillColor=none;top=0;left=0;bottom=0;right=0;editable=1;overflow=hidden;fontStyle=1" vertex="1" parent="Mc22LgpbHQMwx9RBva0N-89">
          <mxGeometry width="29.999999999999996" height="30" as="geometry" />
        </mxCell>
        <mxCell id="Mc22LgpbHQMwx9RBva0N-91" value="trip_id" style="shape=partialRectangle;connectable=0;fillColor=none;top=0;left=0;bottom=0;right=0;align=left;spacingLeft=6;overflow=hidden;fontStyle=1" vertex="1" parent="Mc22LgpbHQMwx9RBva0N-89">
          <mxGeometry x="29.999999999999996" width="150" height="30" as="geometry" />
        </mxCell>
        <mxCell id="Mc22LgpbHQMwx9RBva0N-32" value="User" style="shape=table;startSize=30;container=1;collapsible=1;childLayout=tableLayout;fixedRows=1;rowLines=0;fontStyle=1;align=center;resizeLast=1;" vertex="1" parent="1">
          <mxGeometry x="530" y="80" width="180" height="160" as="geometry" />
        </mxCell>
        <mxCell id="Mc22LgpbHQMwx9RBva0N-33" value="" style="shape=partialRectangle;collapsible=0;dropTarget=0;pointerEvents=0;fillColor=none;top=0;left=0;bottom=1;right=0;points=[[0,0.5],[1,0.5]];portConstraint=eastwest;" vertex="1" parent="Mc22LgpbHQMwx9RBva0N-32">
          <mxGeometry y="30" width="180" height="30" as="geometry" />
        </mxCell>
        <mxCell id="Mc22LgpbHQMwx9RBva0N-34" value="PK" style="shape=partialRectangle;connectable=0;fillColor=none;top=0;left=0;bottom=0;right=0;fontStyle=1;overflow=hidden;" vertex="1" parent="Mc22LgpbHQMwx9RBva0N-33">
          <mxGeometry width="30" height="30" as="geometry" />
        </mxCell>
        <mxCell id="Mc22LgpbHQMwx9RBva0N-35" value="user_id" style="shape=partialRectangle;connectable=0;fillColor=none;top=0;left=0;bottom=0;right=0;align=left;spacingLeft=6;fontStyle=5;overflow=hidden;" vertex="1" parent="Mc22LgpbHQMwx9RBva0N-33">
          <mxGeometry x="30" width="150" height="30" as="geometry" />
        </mxCell>
        <mxCell id="Mc22LgpbHQMwx9RBva0N-36" value="" style="shape=partialRectangle;collapsible=0;dropTarget=0;pointerEvents=0;fillColor=none;top=0;left=0;bottom=0;right=0;points=[[0,0.5],[1,0.5]];portConstraint=eastwest;" vertex="1" parent="Mc22LgpbHQMwx9RBva0N-32">
          <mxGeometry y="60" width="180" height="30" as="geometry" />
        </mxCell>
        <mxCell id="Mc22LgpbHQMwx9RBva0N-37" value="" style="shape=partialRectangle;connectable=0;fillColor=none;top=0;left=0;bottom=0;right=0;editable=1;overflow=hidden;" vertex="1" parent="Mc22LgpbHQMwx9RBva0N-36">
          <mxGeometry width="30" height="30" as="geometry" />
        </mxCell>
        <mxCell id="Mc22LgpbHQMwx9RBva0N-38" value="username" style="shape=partialRectangle;connectable=0;fillColor=none;top=0;left=0;bottom=0;right=0;align=left;spacingLeft=6;overflow=hidden;" vertex="1" parent="Mc22LgpbHQMwx9RBva0N-36">
          <mxGeometry x="30" width="150" height="30" as="geometry" />
        </mxCell>
        <mxCell id="Mc22LgpbHQMwx9RBva0N-39" value="" style="shape=partialRectangle;collapsible=0;dropTarget=0;pointerEvents=0;fillColor=none;top=0;left=0;bottom=0;right=0;points=[[0,0.5],[1,0.5]];portConstraint=eastwest;" vertex="1" parent="Mc22LgpbHQMwx9RBva0N-32">
          <mxGeometry y="90" width="180" height="30" as="geometry" />
        </mxCell>
        <mxCell id="Mc22LgpbHQMwx9RBva0N-40" value="" style="shape=partialRectangle;connectable=0;fillColor=none;top=0;left=0;bottom=0;right=0;editable=1;overflow=hidden;" vertex="1" parent="Mc22LgpbHQMwx9RBva0N-39">
          <mxGeometry width="30" height="30" as="geometry" />
        </mxCell>
        <mxCell id="Mc22LgpbHQMwx9RBva0N-41" value="password" style="shape=partialRectangle;connectable=0;fillColor=none;top=0;left=0;bottom=0;right=0;align=left;spacingLeft=6;overflow=hidden;" vertex="1" parent="Mc22LgpbHQMwx9RBva0N-39">
          <mxGeometry x="30" width="150" height="30" as="geometry" />
        </mxCell>
        <mxCell id="Mc22LgpbHQMwx9RBva0N-42" value="" style="shape=partialRectangle;collapsible=0;dropTarget=0;pointerEvents=0;fillColor=none;top=0;left=0;bottom=0;right=0;points=[[0,0.5],[1,0.5]];portConstraint=eastwest;" vertex="1" parent="Mc22LgpbHQMwx9RBva0N-32">
          <mxGeometry y="120" width="180" height="30" as="geometry" />
        </mxCell>
        <mxCell id="Mc22LgpbHQMwx9RBva0N-43" value="" style="shape=partialRectangle;connectable=0;fillColor=none;top=0;left=0;bottom=0;right=0;editable=1;overflow=hidden;" vertex="1" parent="Mc22LgpbHQMwx9RBva0N-42">
          <mxGeometry width="30" height="30" as="geometry" />
        </mxCell>
        <mxCell id="Mc22LgpbHQMwx9RBva0N-44" value="email" style="shape=partialRectangle;connectable=0;fillColor=none;top=0;left=0;bottom=0;right=0;align=left;spacingLeft=6;overflow=hidden;" vertex="1" parent="Mc22LgpbHQMwx9RBva0N-42">
          <mxGeometry x="30" width="150" height="30" as="geometry" />
        </mxCell>
        <mxCell id="Mc22LgpbHQMwx9RBva0N-48" value="" style="edgeStyle=entityRelationEdgeStyle;fontSize=12;html=1;endArrow=ERzeroToMany;startArrow=ERmandOne;entryX=0;entryY=0.5;entryDx=0;entryDy=0;exitX=0.998;exitY=0.9;exitDx=0;exitDy=0;exitPerimeter=0;" edge="1" parent="1" source="Mc22LgpbHQMwx9RBva0N-36" target="Mc22LgpbHQMwx9RBva0N-25">
          <mxGeometry width="100" height="100" relative="1" as="geometry">
            <mxPoint x="720" y="155" as="sourcePoint" />
            <mxPoint x="620" y="350" as="targetPoint" />
          </mxGeometry>
        </mxCell>
        <mxCell id="Mc22LgpbHQMwx9RBva0N-92" value="Service" style="shape=table;startSize=30;container=1;collapsible=1;childLayout=tableLayout;fixedRows=1;rowLines=0;fontStyle=1;align=center;resizeLast=1;" vertex="1" parent="1">
          <mxGeometry x="1170" y="80" width="180" height="250" as="geometry" />
        </mxCell>
        <mxCell id="Mc22LgpbHQMwx9RBva0N-93" value="" style="shape=partialRectangle;collapsible=0;dropTarget=0;pointerEvents=0;fillColor=none;top=0;left=0;bottom=1;right=0;points=[[0,0.5],[1,0.5]];portConstraint=eastwest;" vertex="1" parent="Mc22LgpbHQMwx9RBva0N-92">
          <mxGeometry y="30" width="180" height="30" as="geometry" />
        </mxCell>
        <mxCell id="Mc22LgpbHQMwx9RBva0N-94" value="PK" style="shape=partialRectangle;connectable=0;fillColor=none;top=0;left=0;bottom=0;right=0;fontStyle=1;overflow=hidden;" vertex="1" parent="Mc22LgpbHQMwx9RBva0N-93">
          <mxGeometry width="29.999999999999996" height="30" as="geometry" />
        </mxCell>
        <mxCell id="Mc22LgpbHQMwx9RBva0N-95" value="service_id" style="shape=partialRectangle;connectable=0;fillColor=none;top=0;left=0;bottom=0;right=0;align=left;spacingLeft=6;fontStyle=5;overflow=hidden;" vertex="1" parent="Mc22LgpbHQMwx9RBva0N-93">
          <mxGeometry x="29.999999999999996" width="150" height="30" as="geometry" />
        </mxCell>
        <mxCell id="Mc22LgpbHQMwx9RBva0N-96" value="" style="shape=partialRectangle;collapsible=0;dropTarget=0;pointerEvents=0;fillColor=none;top=0;left=0;bottom=0;right=0;points=[[0,0.5],[1,0.5]];portConstraint=eastwest;" vertex="1" parent="Mc22LgpbHQMwx9RBva0N-92">
          <mxGeometry y="60" width="180" height="30" as="geometry" />
        </mxCell>
        <mxCell id="Mc22LgpbHQMwx9RBva0N-97" value="" style="shape=partialRectangle;connectable=0;fillColor=none;top=0;left=0;bottom=0;right=0;editable=1;overflow=hidden;" vertex="1" parent="Mc22LgpbHQMwx9RBva0N-96">
          <mxGeometry width="29.999999999999996" height="30" as="geometry" />
        </mxCell>
        <mxCell id="Mc22LgpbHQMwx9RBva0N-98" value="serv_type" style="shape=partialRectangle;connectable=0;fillColor=none;top=0;left=0;bottom=0;right=0;align=left;spacingLeft=6;overflow=hidden;" vertex="1" parent="Mc22LgpbHQMwx9RBva0N-96">
          <mxGeometry x="29.999999999999996" width="150" height="30" as="geometry" />
        </mxCell>
        <mxCell id="Mc22LgpbHQMwx9RBva0N-99" value="" style="shape=partialRectangle;collapsible=0;dropTarget=0;pointerEvents=0;fillColor=none;top=0;left=0;bottom=0;right=0;points=[[0,0.5],[1,0.5]];portConstraint=eastwest;" vertex="1" parent="Mc22LgpbHQMwx9RBva0N-92">
          <mxGeometry y="90" width="180" height="30" as="geometry" />
        </mxCell>
        <mxCell id="Mc22LgpbHQMwx9RBva0N-100" value="" style="shape=partialRectangle;connectable=0;fillColor=none;top=0;left=0;bottom=0;right=0;editable=1;overflow=hidden;" vertex="1" parent="Mc22LgpbHQMwx9RBva0N-99">
          <mxGeometry width="29.999999999999996" height="30" as="geometry" />
        </mxCell>
        <mxCell id="Mc22LgpbHQMwx9RBva0N-101" value="serv_interval" style="shape=partialRectangle;connectable=0;fillColor=none;top=0;left=0;bottom=0;right=0;align=left;spacingLeft=6;overflow=hidden;" vertex="1" parent="Mc22LgpbHQMwx9RBva0N-99">
          <mxGeometry x="29.999999999999996" width="150" height="30" as="geometry" />
        </mxCell>
        <mxCell id="Mc22LgpbHQMwx9RBva0N-102" value="" style="shape=partialRectangle;collapsible=0;dropTarget=0;pointerEvents=0;fillColor=none;top=0;left=0;bottom=0;right=0;points=[[0,0.5],[1,0.5]];portConstraint=eastwest;" vertex="1" parent="Mc22LgpbHQMwx9RBva0N-92">
          <mxGeometry y="120" width="180" height="30" as="geometry" />
        </mxCell>
        <mxCell id="Mc22LgpbHQMwx9RBva0N-103" value="" style="shape=partialRectangle;connectable=0;fillColor=none;top=0;left=0;bottom=0;right=0;editable=1;overflow=hidden;" vertex="1" parent="Mc22LgpbHQMwx9RBva0N-102">
          <mxGeometry width="29.999999999999996" height="30" as="geometry" />
        </mxCell>
        <mxCell id="Mc22LgpbHQMwx9RBva0N-104" value="next_serv" style="shape=partialRectangle;connectable=0;fillColor=none;top=0;left=0;bottom=0;right=0;align=left;spacingLeft=6;overflow=hidden;" vertex="1" parent="Mc22LgpbHQMwx9RBva0N-102">
          <mxGeometry x="29.999999999999996" width="150" height="30" as="geometry" />
        </mxCell>
        <mxCell id="Mc22LgpbHQMwx9RBva0N-105" value="" style="shape=partialRectangle;collapsible=0;dropTarget=0;pointerEvents=0;fillColor=none;top=0;left=0;bottom=0;right=0;points=[[0,0.5],[1,0.5]];portConstraint=eastwest;" vertex="1" parent="Mc22LgpbHQMwx9RBva0N-92">
          <mxGeometry y="150" width="180" height="30" as="geometry" />
        </mxCell>
        <mxCell id="Mc22LgpbHQMwx9RBva0N-106" value="" style="shape=partialRectangle;connectable=0;fillColor=none;top=0;left=0;bottom=0;right=0;editable=1;overflow=hidden;" vertex="1" parent="Mc22LgpbHQMwx9RBva0N-105">
          <mxGeometry width="29.999999999999996" height="30" as="geometry" />
        </mxCell>
        <mxCell id="Mc22LgpbHQMwx9RBva0N-107" value="serv_cost" style="shape=partialRectangle;connectable=0;fillColor=none;top=0;left=0;bottom=0;right=0;align=left;spacingLeft=6;overflow=hidden;" vertex="1" parent="Mc22LgpbHQMwx9RBva0N-105">
          <mxGeometry x="29.999999999999996" width="150" height="30" as="geometry" />
        </mxCell>
        <mxCell id="Mc22LgpbHQMwx9RBva0N-108" value="" style="shape=partialRectangle;collapsible=0;dropTarget=0;pointerEvents=0;fillColor=none;top=0;left=0;bottom=0;right=0;points=[[0,0.5],[1,0.5]];portConstraint=eastwest;" vertex="1" parent="Mc22LgpbHQMwx9RBva0N-92">
          <mxGeometry y="180" width="180" height="30" as="geometry" />
        </mxCell>
        <mxCell id="Mc22LgpbHQMwx9RBva0N-109" value="" style="shape=partialRectangle;connectable=0;fillColor=none;top=0;left=0;bottom=0;right=0;editable=1;overflow=hidden;fontStyle=1" vertex="1" parent="Mc22LgpbHQMwx9RBva0N-108">
          <mxGeometry width="29.999999999999996" height="30" as="geometry" />
        </mxCell>
        <mxCell id="Mc22LgpbHQMwx9RBva0N-110" value="done_by" style="shape=partialRectangle;connectable=0;fillColor=none;top=0;left=0;bottom=0;right=0;align=left;spacingLeft=6;overflow=hidden;fontStyle=0" vertex="1" parent="Mc22LgpbHQMwx9RBva0N-108">
          <mxGeometry x="29.999999999999996" width="150" height="30" as="geometry" />
        </mxCell>
        <mxCell id="Mc22LgpbHQMwx9RBva0N-111" value="" style="shape=partialRectangle;collapsible=0;dropTarget=0;pointerEvents=0;fillColor=none;top=0;left=0;bottom=0;right=0;points=[[0,0.5],[1,0.5]];portConstraint=eastwest;" vertex="1" parent="Mc22LgpbHQMwx9RBva0N-92">
          <mxGeometry y="210" width="180" height="30" as="geometry" />
        </mxCell>
        <mxCell id="Mc22LgpbHQMwx9RBva0N-112" value="FK" style="shape=partialRectangle;connectable=0;fillColor=none;top=0;left=0;bottom=0;right=0;editable=1;overflow=hidden;fontStyle=1" vertex="1" parent="Mc22LgpbHQMwx9RBva0N-111">
          <mxGeometry width="29.999999999999996" height="30" as="geometry" />
        </mxCell>
        <mxCell id="Mc22LgpbHQMwx9RBva0N-113" value="vehicle_id" style="shape=partialRectangle;connectable=0;fillColor=none;top=0;left=0;bottom=0;right=0;align=left;spacingLeft=6;overflow=hidden;fontStyle=1" vertex="1" parent="Mc22LgpbHQMwx9RBva0N-111">
          <mxGeometry x="29.999999999999996" width="150" height="30" as="geometry" />
        </mxCell>
        <mxCell id="Mc22LgpbHQMwx9RBva0N-114" value="" style="edgeStyle=entityRelationEdgeStyle;fontSize=12;html=1;endArrow=ERzeroToMany;startArrow=ERmandOne;exitX=1;exitY=0.5;exitDx=0;exitDy=0;entryX=0;entryY=0.5;entryDx=0;entryDy=0;" edge="1" parent="1" source="Mc22LgpbHQMwx9RBva0N-25" target="Mc22LgpbHQMwx9RBva0N-102">
          <mxGeometry width="100" height="100" relative="1" as="geometry">
            <mxPoint x="520" y="630" as="sourcePoint" />
            <mxPoint x="620" y="530" as="targetPoint" />
          </mxGeometry>
        </mxCell>
        <mxCell id="Mc22LgpbHQMwx9RBva0N-115" value="Trip" style="shape=table;startSize=30;container=1;collapsible=1;childLayout=tableLayout;fixedRows=1;rowLines=0;fontStyle=1;align=center;resizeLast=1;" vertex="1" parent="1">
          <mxGeometry x="530" y="400" width="180" height="130" as="geometry" />
        </mxCell>
        <mxCell id="Mc22LgpbHQMwx9RBva0N-116" value="" style="shape=partialRectangle;collapsible=0;dropTarget=0;pointerEvents=0;fillColor=none;top=0;left=0;bottom=1;right=0;points=[[0,0.5],[1,0.5]];portConstraint=eastwest;" vertex="1" parent="Mc22LgpbHQMwx9RBva0N-115">
          <mxGeometry y="30" width="180" height="30" as="geometry" />
        </mxCell>
        <mxCell id="Mc22LgpbHQMwx9RBva0N-117" value="PK" style="shape=partialRectangle;connectable=0;fillColor=none;top=0;left=0;bottom=0;right=0;fontStyle=1;overflow=hidden;" vertex="1" parent="Mc22LgpbHQMwx9RBva0N-116">
          <mxGeometry width="30" height="30" as="geometry" />
        </mxCell>
        <mxCell id="Mc22LgpbHQMwx9RBva0N-118" value="trip_id" style="shape=partialRectangle;connectable=0;fillColor=none;top=0;left=0;bottom=0;right=0;align=left;spacingLeft=6;fontStyle=5;overflow=hidden;" vertex="1" parent="Mc22LgpbHQMwx9RBva0N-116">
          <mxGeometry x="30" width="150" height="30" as="geometry" />
        </mxCell>
        <mxCell id="Mc22LgpbHQMwx9RBva0N-119" value="" style="shape=partialRectangle;collapsible=0;dropTarget=0;pointerEvents=0;fillColor=none;top=0;left=0;bottom=0;right=0;points=[[0,0.5],[1,0.5]];portConstraint=eastwest;" vertex="1" parent="Mc22LgpbHQMwx9RBva0N-115">
          <mxGeometry y="60" width="180" height="30" as="geometry" />
        </mxCell>
        <mxCell id="Mc22LgpbHQMwx9RBva0N-120" value="" style="shape=partialRectangle;connectable=0;fillColor=none;top=0;left=0;bottom=0;right=0;editable=1;overflow=hidden;" vertex="1" parent="Mc22LgpbHQMwx9RBva0N-119">
          <mxGeometry width="30" height="30" as="geometry" />
        </mxCell>
        <mxCell id="Mc22LgpbHQMwx9RBva0N-121" value="nickname" style="shape=partialRectangle;connectable=0;fillColor=none;top=0;left=0;bottom=0;right=0;align=left;spacingLeft=6;overflow=hidden;" vertex="1" parent="Mc22LgpbHQMwx9RBva0N-119">
          <mxGeometry x="30" width="150" height="30" as="geometry" />
        </mxCell>
        <mxCell id="Mc22LgpbHQMwx9RBva0N-128" value="" style="shape=partialRectangle;collapsible=0;dropTarget=0;pointerEvents=0;fillColor=none;top=0;left=0;bottom=0;right=0;points=[[0,0.5],[1,0.5]];portConstraint=eastwest;" vertex="1" parent="Mc22LgpbHQMwx9RBva0N-115">
          <mxGeometry y="90" width="180" height="30" as="geometry" />
        </mxCell>
        <mxCell id="Mc22LgpbHQMwx9RBva0N-129" value="FK" style="shape=partialRectangle;connectable=0;fillColor=none;top=0;left=0;bottom=0;right=0;editable=1;overflow=hidden;fontStyle=1" vertex="1" parent="Mc22LgpbHQMwx9RBva0N-128">
          <mxGeometry width="30" height="30" as="geometry" />
        </mxCell>
        <mxCell id="Mc22LgpbHQMwx9RBva0N-130" value="user_id" style="shape=partialRectangle;connectable=0;fillColor=none;top=0;left=0;bottom=0;right=0;align=left;spacingLeft=6;overflow=hidden;fontStyle=1" vertex="1" parent="Mc22LgpbHQMwx9RBva0N-128">
          <mxGeometry x="30" width="150" height="30" as="geometry" />
        </mxCell>
        <mxCell id="Mc22LgpbHQMwx9RBva0N-143" value="" style="edgeStyle=entityRelationEdgeStyle;fontSize=12;html=1;endArrow=ERzeroToMany;startArrow=ERmandOne;exitX=0.5;exitY=1;exitDx=0;exitDy=0;entryX=0.5;entryY=0;entryDx=0;entryDy=0;" edge="1" parent="1" source="Mc22LgpbHQMwx9RBva0N-32" target="Mc22LgpbHQMwx9RBva0N-115">
          <mxGeometry width="100" height="100" relative="1" as="geometry">
            <mxPoint x="360" y="240" as="sourcePoint" />
            <mxPoint x="410" y="480" as="targetPoint" />
          </mxGeometry>
        </mxCell>
        <mxCell id="Mc22LgpbHQMwx9RBva0N-149" value="Driving" style="shape=table;startSize=30;container=1;collapsible=1;childLayout=tableLayout;fixedRows=1;rowLines=0;fontStyle=1;align=center;resizeLast=1;" vertex="1" parent="1">
          <mxGeometry x="850" y="400" width="180" height="130" as="geometry" />
        </mxCell>
        <mxCell id="Mc22LgpbHQMwx9RBva0N-150" value="" style="shape=partialRectangle;collapsible=0;dropTarget=0;pointerEvents=0;fillColor=none;top=0;left=0;bottom=1;right=0;points=[[0,0.5],[1,0.5]];portConstraint=eastwest;" vertex="1" parent="Mc22LgpbHQMwx9RBva0N-149">
          <mxGeometry y="30" width="180" height="30" as="geometry" />
        </mxCell>
        <mxCell id="Mc22LgpbHQMwx9RBva0N-151" value="PK,FK1" style="shape=partialRectangle;connectable=0;fillColor=none;top=0;left=0;bottom=0;right=0;fontStyle=1;overflow=hidden;" vertex="1" parent="Mc22LgpbHQMwx9RBva0N-150">
          <mxGeometry width="50" height="30" as="geometry" />
        </mxCell>
        <mxCell id="Mc22LgpbHQMwx9RBva0N-152" value="trip_id" style="shape=partialRectangle;connectable=0;fillColor=none;top=0;left=0;bottom=0;right=0;align=left;spacingLeft=6;fontStyle=5;overflow=hidden;" vertex="1" parent="Mc22LgpbHQMwx9RBva0N-150">
          <mxGeometry x="50" width="130" height="30" as="geometry" />
        </mxCell>
        <mxCell id="Mc22LgpbHQMwx9RBva0N-156" value="" style="shape=partialRectangle;collapsible=0;dropTarget=0;pointerEvents=0;fillColor=none;top=0;left=0;bottom=0;right=0;points=[[0,0.5],[1,0.5]];portConstraint=eastwest;" vertex="1" parent="Mc22LgpbHQMwx9RBva0N-149">
          <mxGeometry y="60" width="180" height="30" as="geometry" />
        </mxCell>
        <mxCell id="Mc22LgpbHQMwx9RBva0N-157" value="PK, FK2" style="shape=partialRectangle;connectable=0;fillColor=none;top=0;left=0;bottom=0;right=0;editable=1;overflow=hidden;fontStyle=1" vertex="1" parent="Mc22LgpbHQMwx9RBva0N-156">
          <mxGeometry width="50" height="30" as="geometry" />
        </mxCell>
        <mxCell id="Mc22LgpbHQMwx9RBva0N-158" value="vehicle_id" style="shape=partialRectangle;connectable=0;fillColor=none;top=0;left=0;bottom=0;right=0;align=left;spacingLeft=6;overflow=hidden;fontStyle=1" vertex="1" parent="Mc22LgpbHQMwx9RBva0N-156">
          <mxGeometry x="50" width="130" height="30" as="geometry" />
        </mxCell>
        <mxCell id="Mc22LgpbHQMwx9RBva0N-178" value="" style="shape=partialRectangle;collapsible=0;dropTarget=0;pointerEvents=0;fillColor=none;top=0;left=0;bottom=0;right=0;points=[[0,0.5],[1,0.5]];portConstraint=eastwest;" vertex="1" parent="Mc22LgpbHQMwx9RBva0N-149">
          <mxGeometry y="90" width="180" height="30" as="geometry" />
        </mxCell>
        <mxCell id="Mc22LgpbHQMwx9RBva0N-179" value="" style="shape=partialRectangle;connectable=0;fillColor=none;top=0;left=0;bottom=0;right=0;editable=1;overflow=hidden;fontStyle=1" vertex="1" parent="Mc22LgpbHQMwx9RBva0N-178">
          <mxGeometry width="50" height="30" as="geometry" />
        </mxCell>
        <mxCell id="Mc22LgpbHQMwx9RBva0N-180" value="total_miles" style="shape=partialRectangle;connectable=0;fillColor=none;top=0;left=0;bottom=0;right=0;align=left;spacingLeft=6;overflow=hidden;fontStyle=0" vertex="1" parent="Mc22LgpbHQMwx9RBva0N-178">
          <mxGeometry x="50" width="130" height="30" as="geometry" />
        </mxCell>
        <mxCell id="Mc22LgpbHQMwx9RBva0N-160" value="" style="edgeStyle=entityRelationEdgeStyle;fontSize=12;html=1;endArrow=ERoneToMany;startArrow=ERmandOne;exitX=1;exitY=0.5;exitDx=0;exitDy=0;entryX=0;entryY=0.5;entryDx=0;entryDy=0;" edge="1" parent="1" source="Mc22LgpbHQMwx9RBva0N-119" target="Mc22LgpbHQMwx9RBva0N-156">
          <mxGeometry width="100" height="100" relative="1" as="geometry">
            <mxPoint x="520" y="440" as="sourcePoint" />
            <mxPoint x="620" y="340" as="targetPoint" />
          </mxGeometry>
        </mxCell>
        <mxCell id="Mc22LgpbHQMwx9RBva0N-161" value="" style="edgeStyle=entityRelationEdgeStyle;fontSize=12;html=1;endArrow=ERoneToMany;startArrow=ERmandOne;exitX=0.5;exitY=1;exitDx=0;exitDy=0;entryX=0.5;entryY=0;entryDx=0;entryDy=0;" edge="1" parent="1" source="Mc22LgpbHQMwx9RBva0N-15" target="Mc22LgpbHQMwx9RBva0N-149">
          <mxGeometry width="100" height="100" relative="1" as="geometry">
            <mxPoint x="720" y="485" as="sourcePoint" />
            <mxPoint x="880" y="370" as="targetPoint" />
          </mxGeometry>
        </mxCell>
        <mxCell id="Mc22LgpbHQMwx9RBva0N-162" value="Location" style="shape=table;startSize=30;container=1;collapsible=1;childLayout=tableLayout;fixedRows=1;rowLines=0;fontStyle=1;align=center;resizeLast=1;" vertex="1" parent="1">
          <mxGeometry x="530" y="640" width="180" height="190" as="geometry" />
        </mxCell>
        <mxCell id="Mc22LgpbHQMwx9RBva0N-163" value="" style="shape=partialRectangle;collapsible=0;dropTarget=0;pointerEvents=0;fillColor=none;top=0;left=0;bottom=1;right=0;points=[[0,0.5],[1,0.5]];portConstraint=eastwest;" vertex="1" parent="Mc22LgpbHQMwx9RBva0N-162">
          <mxGeometry y="30" width="180" height="30" as="geometry" />
        </mxCell>
        <mxCell id="Mc22LgpbHQMwx9RBva0N-164" value="PK" style="shape=partialRectangle;connectable=0;fillColor=none;top=0;left=0;bottom=0;right=0;fontStyle=1;overflow=hidden;" vertex="1" parent="Mc22LgpbHQMwx9RBva0N-163">
          <mxGeometry width="30" height="30" as="geometry" />
        </mxCell>
        <mxCell id="Mc22LgpbHQMwx9RBva0N-165" value="loc_id" style="shape=partialRectangle;connectable=0;fillColor=none;top=0;left=0;bottom=0;right=0;align=left;spacingLeft=6;fontStyle=5;overflow=hidden;" vertex="1" parent="Mc22LgpbHQMwx9RBva0N-163">
          <mxGeometry x="30" width="150" height="30" as="geometry" />
        </mxCell>
        <mxCell id="Mc22LgpbHQMwx9RBva0N-166" value="" style="shape=partialRectangle;collapsible=0;dropTarget=0;pointerEvents=0;fillColor=none;top=0;left=0;bottom=0;right=0;points=[[0,0.5],[1,0.5]];portConstraint=eastwest;" vertex="1" parent="Mc22LgpbHQMwx9RBva0N-162">
          <mxGeometry y="60" width="180" height="30" as="geometry" />
        </mxCell>
        <mxCell id="Mc22LgpbHQMwx9RBva0N-167" value="" style="shape=partialRectangle;connectable=0;fillColor=none;top=0;left=0;bottom=0;right=0;editable=1;overflow=hidden;" vertex="1" parent="Mc22LgpbHQMwx9RBva0N-166">
          <mxGeometry width="30" height="30" as="geometry" />
        </mxCell>
        <mxCell id="Mc22LgpbHQMwx9RBva0N-168" value="loc_type" style="shape=partialRectangle;connectable=0;fillColor=none;top=0;left=0;bottom=0;right=0;align=left;spacingLeft=6;overflow=hidden;" vertex="1" parent="Mc22LgpbHQMwx9RBva0N-166">
          <mxGeometry x="30" width="150" height="30" as="geometry" />
        </mxCell>
        <mxCell id="Mc22LgpbHQMwx9RBva0N-172" value="" style="shape=partialRectangle;collapsible=0;dropTarget=0;pointerEvents=0;fillColor=none;top=0;left=0;bottom=0;right=0;points=[[0,0.5],[1,0.5]];portConstraint=eastwest;" vertex="1" parent="Mc22LgpbHQMwx9RBva0N-162">
          <mxGeometry y="90" width="180" height="30" as="geometry" />
        </mxCell>
        <mxCell id="Mc22LgpbHQMwx9RBva0N-173" value="" style="shape=partialRectangle;connectable=0;fillColor=none;top=0;left=0;bottom=0;right=0;editable=1;overflow=hidden;" vertex="1" parent="Mc22LgpbHQMwx9RBva0N-172">
          <mxGeometry width="30" height="30" as="geometry" />
        </mxCell>
        <mxCell id="Mc22LgpbHQMwx9RBva0N-174" value="address" style="shape=partialRectangle;connectable=0;fillColor=none;top=0;left=0;bottom=0;right=0;align=left;spacingLeft=6;overflow=hidden;" vertex="1" parent="Mc22LgpbHQMwx9RBva0N-172">
          <mxGeometry x="30" width="150" height="30" as="geometry" />
        </mxCell>
        <mxCell id="Mc22LgpbHQMwx9RBva0N-175" value="" style="shape=partialRectangle;collapsible=0;dropTarget=0;pointerEvents=0;fillColor=none;top=0;left=0;bottom=0;right=0;points=[[0,0.5],[1,0.5]];portConstraint=eastwest;" vertex="1" parent="Mc22LgpbHQMwx9RBva0N-162">
          <mxGeometry y="120" width="180" height="30" as="geometry" />
        </mxCell>
        <mxCell id="Mc22LgpbHQMwx9RBva0N-176" value="" style="shape=partialRectangle;connectable=0;fillColor=none;top=0;left=0;bottom=0;right=0;editable=1;overflow=hidden;" vertex="1" parent="Mc22LgpbHQMwx9RBva0N-175">
          <mxGeometry width="30" height="30" as="geometry" />
        </mxCell>
        <mxCell id="Mc22LgpbHQMwx9RBva0N-177" value="cost" style="shape=partialRectangle;connectable=0;fillColor=none;top=0;left=0;bottom=0;right=0;align=left;spacingLeft=6;overflow=hidden;" vertex="1" parent="Mc22LgpbHQMwx9RBva0N-175">
          <mxGeometry x="30" width="150" height="30" as="geometry" />
        </mxCell>
        <mxCell id="Mc22LgpbHQMwx9RBva0N-181" value="" style="shape=partialRectangle;collapsible=0;dropTarget=0;pointerEvents=0;fillColor=none;top=0;left=0;bottom=0;right=0;points=[[0,0.5],[1,0.5]];portConstraint=eastwest;" vertex="1" parent="Mc22LgpbHQMwx9RBva0N-162">
          <mxGeometry y="150" width="180" height="30" as="geometry" />
        </mxCell>
        <mxCell id="Mc22LgpbHQMwx9RBva0N-182" value="FK" style="shape=partialRectangle;connectable=0;fillColor=none;top=0;left=0;bottom=0;right=0;editable=1;overflow=hidden;fontStyle=1" vertex="1" parent="Mc22LgpbHQMwx9RBva0N-181">
          <mxGeometry width="30" height="30" as="geometry" />
        </mxCell>
        <mxCell id="Mc22LgpbHQMwx9RBva0N-183" value="trip_id" style="shape=partialRectangle;connectable=0;fillColor=none;top=0;left=0;bottom=0;right=0;align=left;spacingLeft=6;overflow=hidden;fontStyle=1" vertex="1" parent="Mc22LgpbHQMwx9RBva0N-181">
          <mxGeometry x="30" width="150" height="30" as="geometry" />
        </mxCell>
        <mxCell id="Mc22LgpbHQMwx9RBva0N-272" value="Route" style="shape=table;startSize=30;container=1;collapsible=1;childLayout=tableLayout;fixedRows=1;rowLines=0;fontStyle=1;align=center;resizeLast=1;" vertex="1" parent="1">
          <mxGeometry x="250" y="400" width="180" height="220" as="geometry" />
        </mxCell>
        <mxCell id="Mc22LgpbHQMwx9RBva0N-273" value="" style="shape=partialRectangle;collapsible=0;dropTarget=0;pointerEvents=0;fillColor=none;top=0;left=0;bottom=1;right=0;points=[[0,0.5],[1,0.5]];portConstraint=eastwest;" vertex="1" parent="Mc22LgpbHQMwx9RBva0N-272">
          <mxGeometry y="30" width="180" height="30" as="geometry" />
        </mxCell>
        <mxCell id="Mc22LgpbHQMwx9RBva0N-274" value="PK" style="shape=partialRectangle;connectable=0;fillColor=none;top=0;left=0;bottom=0;right=0;fontStyle=1;overflow=hidden;" vertex="1" parent="Mc22LgpbHQMwx9RBva0N-273">
          <mxGeometry width="30" height="30" as="geometry" />
        </mxCell>
        <mxCell id="Mc22LgpbHQMwx9RBva0N-275" value="route_id" style="shape=partialRectangle;connectable=0;fillColor=none;top=0;left=0;bottom=0;right=0;align=left;spacingLeft=6;fontStyle=5;overflow=hidden;" vertex="1" parent="Mc22LgpbHQMwx9RBva0N-273">
          <mxGeometry x="30" width="150" height="30" as="geometry" />
        </mxCell>
        <mxCell id="Mc22LgpbHQMwx9RBva0N-276" value="" style="shape=partialRectangle;collapsible=0;dropTarget=0;pointerEvents=0;fillColor=none;top=0;left=0;bottom=0;right=0;points=[[0,0.5],[1,0.5]];portConstraint=eastwest;" vertex="1" parent="Mc22LgpbHQMwx9RBva0N-272">
          <mxGeometry y="60" width="180" height="30" as="geometry" />
        </mxCell>
        <mxCell id="Mc22LgpbHQMwx9RBva0N-277" value="" style="shape=partialRectangle;connectable=0;fillColor=none;top=0;left=0;bottom=0;right=0;editable=1;overflow=hidden;" vertex="1" parent="Mc22LgpbHQMwx9RBva0N-276">
          <mxGeometry width="30" height="30" as="geometry" />
        </mxCell>
        <mxCell id="Mc22LgpbHQMwx9RBva0N-278" value="start_addres" style="shape=partialRectangle;connectable=0;fillColor=none;top=0;left=0;bottom=0;right=0;align=left;spacingLeft=6;overflow=hidden;" vertex="1" parent="Mc22LgpbHQMwx9RBva0N-276">
          <mxGeometry x="30" width="150" height="30" as="geometry" />
        </mxCell>
        <mxCell id="Mc22LgpbHQMwx9RBva0N-279" value="" style="shape=partialRectangle;collapsible=0;dropTarget=0;pointerEvents=0;fillColor=none;top=0;left=0;bottom=0;right=0;points=[[0,0.5],[1,0.5]];portConstraint=eastwest;" vertex="1" parent="Mc22LgpbHQMwx9RBva0N-272">
          <mxGeometry y="90" width="180" height="30" as="geometry" />
        </mxCell>
        <mxCell id="Mc22LgpbHQMwx9RBva0N-280" value="" style="shape=partialRectangle;connectable=0;fillColor=none;top=0;left=0;bottom=0;right=0;editable=1;overflow=hidden;" vertex="1" parent="Mc22LgpbHQMwx9RBva0N-279">
          <mxGeometry width="30" height="30" as="geometry" />
        </mxCell>
        <mxCell id="Mc22LgpbHQMwx9RBva0N-281" value="dest_address" style="shape=partialRectangle;connectable=0;fillColor=none;top=0;left=0;bottom=0;right=0;align=left;spacingLeft=6;overflow=hidden;" vertex="1" parent="Mc22LgpbHQMwx9RBva0N-279">
          <mxGeometry x="30" width="150" height="30" as="geometry" />
        </mxCell>
        <mxCell id="Mc22LgpbHQMwx9RBva0N-282" value="" style="shape=partialRectangle;collapsible=0;dropTarget=0;pointerEvents=0;fillColor=none;top=0;left=0;bottom=0;right=0;points=[[0,0.5],[1,0.5]];portConstraint=eastwest;" vertex="1" parent="Mc22LgpbHQMwx9RBva0N-272">
          <mxGeometry y="120" width="180" height="30" as="geometry" />
        </mxCell>
        <mxCell id="Mc22LgpbHQMwx9RBva0N-283" value="" style="shape=partialRectangle;connectable=0;fillColor=none;top=0;left=0;bottom=0;right=0;editable=1;overflow=hidden;" vertex="1" parent="Mc22LgpbHQMwx9RBva0N-282">
          <mxGeometry width="30" height="30" as="geometry" />
        </mxCell>
        <mxCell id="Mc22LgpbHQMwx9RBva0N-284" value="miles" style="shape=partialRectangle;connectable=0;fillColor=none;top=0;left=0;bottom=0;right=0;align=left;spacingLeft=6;overflow=hidden;" vertex="1" parent="Mc22LgpbHQMwx9RBva0N-282">
          <mxGeometry x="30" width="150" height="30" as="geometry" />
        </mxCell>
        <mxCell id="Mc22LgpbHQMwx9RBva0N-285" value="" style="shape=partialRectangle;collapsible=0;dropTarget=0;pointerEvents=0;fillColor=none;top=0;left=0;bottom=0;right=0;points=[[0,0.5],[1,0.5]];portConstraint=eastwest;" vertex="1" parent="Mc22LgpbHQMwx9RBva0N-272">
          <mxGeometry y="150" width="180" height="30" as="geometry" />
        </mxCell>
        <mxCell id="Mc22LgpbHQMwx9RBva0N-286" value="" style="shape=partialRectangle;connectable=0;fillColor=none;top=0;left=0;bottom=0;right=0;editable=1;overflow=hidden;fontStyle=1" vertex="1" parent="Mc22LgpbHQMwx9RBva0N-285">
          <mxGeometry width="30" height="30" as="geometry" />
        </mxCell>
        <mxCell id="Mc22LgpbHQMwx9RBva0N-287" value="estimated_time" style="shape=partialRectangle;connectable=0;fillColor=none;top=0;left=0;bottom=0;right=0;align=left;spacingLeft=6;overflow=hidden;fontStyle=0" vertex="1" parent="Mc22LgpbHQMwx9RBva0N-285">
          <mxGeometry x="30" width="150" height="30" as="geometry" />
        </mxCell>
        <mxCell id="Mc22LgpbHQMwx9RBva0N-288" value="" style="shape=partialRectangle;collapsible=0;dropTarget=0;pointerEvents=0;fillColor=none;top=0;left=0;bottom=0;right=0;points=[[0,0.5],[1,0.5]];portConstraint=eastwest;" vertex="1" parent="Mc22LgpbHQMwx9RBva0N-272">
          <mxGeometry y="180" width="180" height="30" as="geometry" />
        </mxCell>
        <mxCell id="Mc22LgpbHQMwx9RBva0N-289" value="FK" style="shape=partialRectangle;connectable=0;fillColor=none;top=0;left=0;bottom=0;right=0;editable=1;overflow=hidden;fontStyle=0" vertex="1" parent="Mc22LgpbHQMwx9RBva0N-288">
          <mxGeometry width="30" height="30" as="geometry" />
        </mxCell>
        <mxCell id="Mc22LgpbHQMwx9RBva0N-290" value="trip_id" style="shape=partialRectangle;connectable=0;fillColor=none;top=0;left=0;bottom=0;right=0;align=left;spacingLeft=6;overflow=hidden;fontStyle=1" vertex="1" parent="Mc22LgpbHQMwx9RBva0N-288">
          <mxGeometry x="30" width="150" height="30" as="geometry" />
        </mxCell>
        <mxCell id="Mc22LgpbHQMwx9RBva0N-292" value="" style="edgeStyle=entityRelationEdgeStyle;fontSize=12;html=1;endArrow=ERoneToMany;startArrow=ERmandOne;exitX=0;exitY=0.5;exitDx=0;exitDy=0;entryX=1;entryY=0.5;entryDx=0;entryDy=0;" edge="1" parent="1" source="Mc22LgpbHQMwx9RBva0N-119" target="Mc22LgpbHQMwx9RBva0N-279">
          <mxGeometry width="100" height="100" relative="1" as="geometry">
            <mxPoint x="430" y="440" as="sourcePoint" />
            <mxPoint x="470" y="550" as="targetPoint" />
          </mxGeometry>
        </mxCell>
        <mxCell id="Mc22LgpbHQMwx9RBva0N-293" value="Toll" style="shape=table;startSize=30;container=1;collapsible=1;childLayout=tableLayout;fixedRows=1;rowLines=0;fontStyle=1;align=center;resizeLast=1;" vertex="1" parent="1">
          <mxGeometry x="240" y="700" width="180" height="130" as="geometry" />
        </mxCell>
        <mxCell id="Mc22LgpbHQMwx9RBva0N-294" value="" style="shape=partialRectangle;collapsible=0;dropTarget=0;pointerEvents=0;fillColor=none;top=0;left=0;bottom=1;right=0;points=[[0,0.5],[1,0.5]];portConstraint=eastwest;" vertex="1" parent="Mc22LgpbHQMwx9RBva0N-293">
          <mxGeometry y="30" width="180" height="30" as="geometry" />
        </mxCell>
        <mxCell id="Mc22LgpbHQMwx9RBva0N-295" value="PK" style="shape=partialRectangle;connectable=0;fillColor=none;top=0;left=0;bottom=0;right=0;fontStyle=1;overflow=hidden;" vertex="1" parent="Mc22LgpbHQMwx9RBva0N-294">
          <mxGeometry width="30" height="30" as="geometry" />
        </mxCell>
        <mxCell id="Mc22LgpbHQMwx9RBva0N-296" value="toll_id" style="shape=partialRectangle;connectable=0;fillColor=none;top=0;left=0;bottom=0;right=0;align=left;spacingLeft=6;fontStyle=5;overflow=hidden;" vertex="1" parent="Mc22LgpbHQMwx9RBva0N-294">
          <mxGeometry x="30" width="150" height="30" as="geometry" />
        </mxCell>
        <mxCell id="Mc22LgpbHQMwx9RBva0N-297" value="" style="shape=partialRectangle;collapsible=0;dropTarget=0;pointerEvents=0;fillColor=none;top=0;left=0;bottom=0;right=0;points=[[0,0.5],[1,0.5]];portConstraint=eastwest;" vertex="1" parent="Mc22LgpbHQMwx9RBva0N-293">
          <mxGeometry y="60" width="180" height="30" as="geometry" />
        </mxCell>
        <mxCell id="Mc22LgpbHQMwx9RBva0N-298" value="" style="shape=partialRectangle;connectable=0;fillColor=none;top=0;left=0;bottom=0;right=0;editable=1;overflow=hidden;" vertex="1" parent="Mc22LgpbHQMwx9RBva0N-297">
          <mxGeometry width="30" height="30" as="geometry" />
        </mxCell>
        <mxCell id="Mc22LgpbHQMwx9RBva0N-299" value="cost" style="shape=partialRectangle;connectable=0;fillColor=none;top=0;left=0;bottom=0;right=0;align=left;spacingLeft=6;overflow=hidden;" vertex="1" parent="Mc22LgpbHQMwx9RBva0N-297">
          <mxGeometry x="30" width="150" height="30" as="geometry" />
        </mxCell>
        <mxCell id="Mc22LgpbHQMwx9RBva0N-306" value="" style="shape=partialRectangle;collapsible=0;dropTarget=0;pointerEvents=0;fillColor=none;top=0;left=0;bottom=0;right=0;points=[[0,0.5],[1,0.5]];portConstraint=eastwest;" vertex="1" parent="Mc22LgpbHQMwx9RBva0N-293">
          <mxGeometry y="90" width="180" height="30" as="geometry" />
        </mxCell>
        <mxCell id="Mc22LgpbHQMwx9RBva0N-307" value="FK" style="shape=partialRectangle;connectable=0;fillColor=none;top=0;left=0;bottom=0;right=0;editable=1;overflow=hidden;fontStyle=1" vertex="1" parent="Mc22LgpbHQMwx9RBva0N-306">
          <mxGeometry width="30" height="30" as="geometry" />
        </mxCell>
        <mxCell id="Mc22LgpbHQMwx9RBva0N-308" value="route_id" style="shape=partialRectangle;connectable=0;fillColor=none;top=0;left=0;bottom=0;right=0;align=left;spacingLeft=6;overflow=hidden;fontStyle=1" vertex="1" parent="Mc22LgpbHQMwx9RBva0N-306">
          <mxGeometry x="30" width="150" height="30" as="geometry" />
        </mxCell>
        <mxCell id="Mc22LgpbHQMwx9RBva0N-309" value="" style="edgeStyle=entityRelationEdgeStyle;fontSize=12;html=1;endArrow=ERoneToMany;startArrow=ERmandOne;exitX=0.5;exitY=1;exitDx=0;exitDy=0;entryX=0.5;entryY=0;entryDx=0;entryDy=0;" edge="1" parent="1" source="Mc22LgpbHQMwx9RBva0N-115" target="Mc22LgpbHQMwx9RBva0N-162">
          <mxGeometry width="100" height="100" relative="1" as="geometry">
            <mxPoint x="540" y="485" as="sourcePoint" />
            <mxPoint x="440" y="515" as="targetPoint" />
          </mxGeometry>
        </mxCell>
        <mxCell id="Mc22LgpbHQMwx9RBva0N-311" value="" style="edgeStyle=entityRelationEdgeStyle;fontSize=12;html=1;endArrow=ERzeroToMany;startArrow=ERmandOne;entryX=0.5;entryY=0;entryDx=0;entryDy=0;" edge="1" parent="1" target="Mc22LgpbHQMwx9RBva0N-293">
          <mxGeometry width="100" height="100" relative="1" as="geometry">
            <mxPoint x="330" y="620" as="sourcePoint" />
            <mxPoint x="1140" y="300" as="targetPoint" />
          </mxGeometry>
        </mxCell>
      </root>
    </mxGraphModel>
  </diagram>
</mxfile>
